<svg width="30" height="30" viewBox="0 0 30 30" fill="none" xmlns="http://www.w3.org/2000/svg">
<path d="M15.0049 0C8.74254 0 6.91103 0.0064629 6.55502 0.0359999C5.26988 0.142855 4.47019 0.34526 3.59896 0.779131C2.92756 1.11263 2.39803 1.4992 1.87544 2.04109C0.9237 3.02933 0.346884 4.24512 0.138073 5.69033C0.0365584 6.39192 0.0070211 6.53501 0.00102299 10.1187C-0.00127874 11.3133 0.00102299 12.8854 0.00102299 14.9941C0.00102299 21.2531 0.00793949 23.0833 0.0379414 23.4387C0.141769 24.6896 0.337881 25.4765 0.75319 26.3374C1.54689 27.9852 3.06275 29.2222 4.84857 29.6838C5.46692 29.8431 6.14987 29.9308 7.02663 29.9723C7.3981 29.9885 11.1843 30 14.9728 30C18.7613 30 22.5499 29.9954 22.9121 29.9769C23.9273 29.9291 24.5168 29.85 25.1686 29.6815C26.966 29.2176 28.4541 27.9991 29.264 26.3281C29.6712 25.4881 29.8777 24.6711 29.9712 23.4855C29.9915 23.227 30 19.1058 30 14.9902C30 10.8738 29.9908 6.76026 29.9705 6.50177C29.8759 5.29706 29.6694 4.487 29.249 3.63076C28.9041 2.92986 28.5211 2.40642 27.965 1.87124C26.9727 0.923153 25.759 0.346178 24.3128 0.137548C23.6121 0.0362268 23.4725 0.00622488 19.8871 0H15.0049Z" fill="url(#paint0_radial_28_267)"/>
<path d="M15.0049 0C8.74254 0 6.91103 0.0064629 6.55502 0.0359999C5.26988 0.142855 4.47019 0.34526 3.59896 0.779131C2.92756 1.11263 2.39803 1.4992 1.87544 2.04109C0.9237 3.02933 0.346884 4.24512 0.138073 5.69033C0.0365584 6.39192 0.0070211 6.53501 0.00102299 10.1187C-0.00127874 11.3133 0.00102299 12.8854 0.00102299 14.9941C0.00102299 21.2531 0.00793949 23.0833 0.0379414 23.4387C0.141769 24.6896 0.337881 25.4765 0.75319 26.3374C1.54689 27.9852 3.06275 29.2222 4.84857 29.6838C5.46692 29.8431 6.14987 29.9308 7.02663 29.9723C7.3981 29.9885 11.1843 30 14.9728 30C18.7613 30 22.5499 29.9954 22.9121 29.9769C23.9273 29.9291 24.5168 29.85 25.1686 29.6815C26.966 29.2176 28.4541 27.9991 29.264 26.3281C29.6712 25.4881 29.8777 24.6711 29.9712 23.4855C29.9915 23.227 30 19.1058 30 14.9902C30 10.8738 29.9908 6.76026 29.9705 6.50177C29.8759 5.29706 29.6694 4.487 29.249 3.63076C28.9041 2.92986 28.5211 2.40642 27.965 1.87124C26.9727 0.923153 25.759 0.346178 24.3128 0.137548C23.6121 0.0362268 23.4725 0.00622488 19.8871 0H15.0049Z" fill="url(#paint1_radial_28_267)"/>
<path d="M15.0049 0C8.74254 0 6.91103 0.0064629 6.55502 0.0359999C5.26988 0.142855 4.47019 0.34526 3.59896 0.779131C2.92756 1.11263 2.39803 1.4992 1.87544 2.04109C0.9237 3.02933 0.346884 4.24512 0.138073 5.69033C0.0365584 6.39192 0.0070211 6.53501 0.00102299 10.1187C-0.00127874 11.3133 0.00102299 12.8854 0.00102299 14.9941C0.00102299 21.2531 0.00793949 23.0833 0.0379414 23.4387C0.141769 24.6896 0.337881 25.4765 0.75319 26.3374C1.54689 27.9852 3.06275 29.2222 4.84857 29.6838C5.46692 29.8431 6.14987 29.9308 7.02663 29.9723C7.3981 29.9885 11.1843 30 14.9728 30C18.7613 30 22.5499 29.9954 22.9121 29.9769C23.9273 29.9291 24.5168 29.85 25.1686 29.6815C26.966 29.2176 28.4541 27.9991 29.264 26.3281C29.6712 25.4881 29.8777 24.6711 29.9712 23.4855C29.9915 23.227 30 19.1058 30 14.9902C30 10.8738 29.9908 6.76026 29.9705 6.50177C29.8759 5.29706 29.6694 4.487 29.249 3.63076C28.9041 2.92986 28.5211 2.40642 27.965 1.87124C26.9727 0.923153 25.759 0.346178 24.3128 0.137548C23.6121 0.0362268 23.4725 0.00622488 19.8871 0H15.0049Z" fill="url(#paint2_radial_28_267)"/>
<path d="M15.0049 0C8.74254 0 6.91103 0.0064629 6.55502 0.0359999C5.26988 0.142855 4.47019 0.34526 3.59896 0.779131C2.92756 1.11263 2.39803 1.4992 1.87544 2.04109C0.9237 3.02933 0.346884 4.24512 0.138073 5.69033C0.0365584 6.39192 0.0070211 6.53501 0.00102299 10.1187C-0.00127874 11.3133 0.00102299 12.8854 0.00102299 14.9941C0.00102299 21.2531 0.00793949 23.0833 0.0379414 23.4387C0.141769 24.6896 0.337881 25.4765 0.75319 26.3374C1.54689 27.9852 3.06275 29.2222 4.84857 29.6838C5.46692 29.8431 6.14987 29.9308 7.02663 29.9723C7.3981 29.9885 11.1843 30 14.9728 30C18.7613 30 22.5499 29.9954 22.9121 29.9769C23.9273 29.9291 24.5168 29.85 25.1686 29.6815C26.966 29.2176 28.4541 27.9991 29.264 26.3281C29.6712 25.4881 29.8777 24.6711 29.9712 23.4855C29.9915 23.227 30 19.1058 30 14.9902C30 10.8738 29.9908 6.76026 29.9705 6.50177C29.8759 5.29706 29.6694 4.487 29.249 3.63076C28.9041 2.92986 28.5211 2.40642 27.965 1.87124C26.9727 0.923153 25.759 0.346178 24.3128 0.137548C23.6121 0.0362268 23.4725 0.00622488 19.8871 0H15.0049Z" fill="url(#paint3_radial_28_267)"/>
<path d="M15.0061 3.85205C11.9768 3.85205 11.5966 3.86528 10.4068 3.91939C9.21939 3.97373 8.40885 4.16158 7.69962 4.43722C6.966 4.7219 6.34368 5.10272 5.7237 5.72248C5.10325 6.34202 4.72214 6.96386 4.43632 7.6967C4.15978 8.40564 3.97155 9.2158 3.91811 10.4019C3.8649 11.5908 3.85095 11.9709 3.85095 14.998C3.85095 18.0251 3.86443 18.4038 3.91834 19.5927C3.97296 20.7793 4.16095 21.5892 4.43654 22.2979C4.72168 23.031 5.10278 23.6528 5.723 24.2723C6.34276 24.8923 6.96507 25.2741 7.69822 25.5588C8.40791 25.8344 9.21869 26.0223 10.4059 26.0766C11.5957 26.1307 11.9756 26.1439 15.0047 26.1439C18.0342 26.1439 18.4133 26.1307 19.603 26.0766C20.7905 26.0223 21.602 25.8344 22.3117 25.5588C23.045 25.2741 23.6664 24.8923 24.2862 24.2723C24.9066 23.6528 25.2877 23.031 25.5736 22.2981C25.8478 21.5892 26.036 20.779 26.0918 19.5929C26.1452 18.404 26.1592 18.025 26.1592 14.998C26.1592 11.9709 26.1452 11.5911 26.0918 10.4021C26.036 9.21557 25.8478 8.40564 25.5736 7.69694C25.2877 6.96386 24.9066 6.342 24.2862 5.72248C23.6657 5.10248 23.0453 4.72166 22.311 4.43721C21.5999 4.16158 20.7889 3.97373 19.6014 3.91939C18.4116 3.86528 18.0328 3.85205 15.0026 3.85205H15.0061ZM14.0055 5.86065C14.3025 5.86018 14.6338 5.86065 15.0061 5.86065C17.9843 5.86065 18.3373 5.87133 19.5133 5.92473C20.6009 5.97443 21.1911 6.15601 21.5843 6.30857C22.1048 6.51059 22.476 6.75209 22.8661 7.14219C23.2565 7.53231 23.4982 7.90384 23.7008 8.42397C23.8535 8.8164 24.0354 9.40621 24.0849 10.4929C24.1384 11.6679 24.15 12.0209 24.15 14.9954C24.15 17.97 24.1384 18.323 24.0849 19.4979C24.0352 20.5847 23.8535 21.1745 23.7008 21.5669C23.4987 22.087 23.2565 22.4574 22.8661 22.8473C22.4757 23.2374 22.1051 23.4789 21.5843 23.6809C21.1916 23.8342 20.6009 24.0153 19.5133 24.065C18.3375 24.1184 17.9843 24.13 15.0061 24.13C12.0277 24.13 11.6747 24.1184 10.4989 24.065C9.41134 24.0148 8.8211 23.8332 8.42767 23.6807C7.90714 23.4787 7.53532 23.2372 7.14494 22.8471C6.75454 22.457 6.51287 22.0864 6.31022 21.566C6.15755 21.1735 5.9756 20.5837 5.92611 19.497C5.87266 18.322 5.86196 17.9691 5.86196 14.9927C5.86196 12.0162 5.87266 11.6651 5.92611 10.4902C5.97584 9.40342 6.15755 8.81362 6.31022 8.42073C6.51239 7.90058 6.75454 7.52905 7.14494 7.13895C7.53532 6.74883 7.90714 6.50734 8.42767 6.30486C8.82086 6.1516 9.41134 5.97048 10.4989 5.92055C11.5278 5.87411 11.9266 5.86018 14.0055 5.85785L14.0055 5.86065ZM20.9601 7.71133C20.2212 7.71133 19.6216 8.30974 19.6216 9.04838C19.6216 9.7868 20.2212 10.3859 20.9601 10.3859C21.6991 10.3859 22.2986 9.7868 22.2986 9.04838C22.2986 8.30996 21.6991 7.71088 20.9601 7.71088L20.9601 7.71133ZM15.0061 9.27408C11.8427 9.27408 9.27795 11.837 9.27795 14.998C9.27795 18.159 11.8427 20.7207 15.0061 20.7207C18.1695 20.7207 20.7333 18.159 20.7333 14.998C20.7333 11.837 18.1693 9.27408 15.0059 9.27408H15.0061ZM15.0061 11.2827C17.0594 11.2827 18.7242 12.946 18.7242 14.998C18.7242 17.0498 17.0594 18.7133 15.0061 18.7133C12.9526 18.7133 11.288 17.0498 11.288 14.998C11.288 12.946 12.9526 11.2827 15.0061 11.2827Z" fill="white"/>
<defs>
<radialGradient id="paint0_radial_28_267" cx="0" cy="0" r="1" gradientUnits="userSpaceOnUse" gradientTransform="translate(29.0313 14.0614) rotate(164.25) scale(19.1683 13.8098)">
<stop stop-color="#FF005F"/>
<stop offset="1" stop-color="#FC01D8"/>
</radialGradient>
<radialGradient id="paint1_radial_28_267" cx="0" cy="0" r="1" gradientUnits="userSpaceOnUse" gradientTransform="translate(7.96852 32.3106) rotate(-90) scale(23.9466 25.4068)">
<stop stop-color="#FFCC00"/>
<stop offset="0.1242" stop-color="#FFCC00"/>
<stop offset="0.5672" stop-color="#FE4A05"/>
<stop offset="0.6942" stop-color="#FF0F3F"/>
<stop offset="1" stop-color="#FE0657" stop-opacity="0"/>
</radialGradient>
<radialGradient id="paint2_radial_28_267" cx="0" cy="0" r="1" gradientUnits="userSpaceOnUse" gradientTransform="translate(15.7581 29.5769) rotate(-59.8703) scale(9.90211 12.8914)">
<stop stop-color="#FFCC00"/>
<stop offset="1" stop-color="#FFCC00" stop-opacity="0"/>
</radialGradient>
<radialGradient id="paint3_radial_28_267" cx="0" cy="0" r="1" gradientUnits="userSpaceOnUse" gradientTransform="translate(4.07036 1.22159) rotate(164.274) scale(18.9557 6.45819)">
<stop stop-color="#780CFF"/>
<stop offset="1" stop-color="#820BFF" stop-opacity="0"/>
</radialGradient>
</defs>
</svg>
