<svg width="30" height="30" viewBox="0 0 30 30" fill="none" xmlns="http://www.w3.org/2000/svg">
<path d="M29.3731 4.6846C29.0281 2.84056 28.0116 1.38847 26.7208 0.895647C24.3813 1.90735e-06 15 0 15 0C15 0 5.61874 1.90735e-06 3.27919 0.895647C1.98845 1.38847 0.971857 2.84056 0.626886 4.6846C0 8.02677 0 15 0 15C0 15 0 21.9731 0.626886 25.3156C0.971857 27.1594 1.98845 28.6115 3.27919 29.1046C5.61874 30 15 30 15 30C15 30 24.3813 30 26.7208 29.1046C28.0116 28.6115 29.0281 27.1594 29.3731 25.3156C30 21.9731 30 15 30 15C30 15 30 8.02677 29.3731 4.6846Z" fill="#ED1D24"/>
<path d="M11.9318 21.3311L19.7727 15.0002L11.9318 8.66876V21.3311Z" fill="white"/>
</svg>
